<?xml version="1.0" encoding="utf-8"?>
<!-- Generator: Adobe Illustrator 24.0.1, SVG Export Plug-In . SVG Version: 6.00 Build 0)  -->
<svg version="1.1" id="Слой_1" xmlns="http://www.w3.org/2000/svg" xmlns:xlink="http://www.w3.org/1999/xlink" x="0px" y="0px"
	 viewBox="0 0 96 96" style="enable-background:new 0 0 96 96;" xml:space="preserve">
<style type="text/css">
	.st0{fill:#FFFFFF;}
</style>
<g>
	<path class="st0" d="M14.5,54.5c2.4-3.5,4.9-6.9,7.5-10.2c2.6-3.3,5.3-6.5,8-9.7c2.7-3.2,5.5-6.3,8.3-9.4c2.8-3.1,5.7-6.1,8.7-9.1
		l2.5-2.6l2.5,2.6c2.7,2.8,5.5,5.7,8.1,8.6c2.7,2.9,5.3,5.9,7.8,8.9c2.6,3,5.1,6.1,7.5,9.2c2.4,3.1,4.8,6.3,7,9.7
		c-3.3-2.3-6.4-4.8-9.5-7.3c-3.1-2.5-6-5.1-9-7.8c-2.9-2.7-5.8-5.3-8.7-8.1c-2.8-2.7-5.6-5.5-8.4-8.4h5c-2.9,3-5.9,6-8.8,8.9
		c-3,2.9-6,5.8-9.2,8.6c-3.1,2.8-6.3,5.6-9.5,8.3C21.3,49.4,18,52,14.5,54.5z"/>
</g>
<g>
	<path class="st0" d="M23.5,53.5c0.2,1.8,0.4,3.7,0.5,5.5c0.2,1.8,0.3,3.7,0.4,5.5s0.2,3.7,0.3,5.5c0.1,1.8,0.2,3.7,0.3,5.5L23.5,74
		l6.5-0.2l6.5-0.2c4.3-0.1,8.7-0.1,13-0.1c4.3,0,8.7,0,13,0.1c4.3,0.1,8.7,0.2,13,0.4L74,75.5c0.1-1.9,0.1-3.8,0.3-5.8l0.3-5.7
		c0.1-1.9,0.2-3.8,0.4-5.8c0.2-1.9,0.3-3.8,0.5-5.8c0.2,1.9,0.4,3.8,0.5,5.8c0.2,1.9,0.3,3.8,0.4,5.8l0.3,5.8
		c0.1,1.9,0.2,3.8,0.3,5.8l0.1,1.4L75.5,77c-4.3,0.2-8.7,0.3-13,0.4c-4.3,0.1-8.7,0.1-13,0.1c-4.3-0.1-8.7,0-13-0.1L30,77.2L23.5,77
		L22,76.9l0-1.4c0.1-1.8,0.1-3.7,0.3-5.5c0.1-1.8,0.2-3.7,0.3-5.5s0.2-3.7,0.4-5.5C23.1,57.2,23.3,55.3,23.5,53.5z"/>
</g>
<g>
	<path class="st0" d="M40.1,75.5c-0.4-3.5-0.6-7-0.7-10.5c-0.1-1.8-0.1-3.5-0.2-5.3c-0.1-1.8,0-3.5-0.1-5.3l0-1.3l1.4,0
		c3-0.1,6-0.1,9-0.1c3,0,6,0,9,0.1l1.4,0l0,1.3c-0.1,1.8-0.1,3.5-0.2,5.3c-0.1,1.8-0.1,3.5-0.3,5.2c-0.2,3.5-0.5,7-0.9,10.5
		c-0.4-3.5-0.7-7-0.9-10.5c-0.1-1.8-0.2-3.5-0.3-5.3c-0.1-1.8-0.1-3.5-0.2-5.3l1.4,1.4c-3,0.1-6,0.1-9,0.1c-3,0-6,0-9-0.1l1.4-1.3
		c-0.1,1.8-0.2,3.5-0.3,5.3c-0.1,1.8-0.2,3.5-0.4,5.3C40.9,68.5,40.6,72.1,40.1,75.5z"/>
</g>
</svg>
