<?xml version="1.0" encoding="utf-8"?>
<!-- Generator: Adobe Illustrator 24.0.1, SVG Export Plug-In . SVG Version: 6.00 Build 0)  -->
<svg version="1.1" id="Слой_1" xmlns="http://www.w3.org/2000/svg" xmlns:xlink="http://www.w3.org/1999/xlink" x="0px" y="0px"
	 viewBox="0 0 96 96" style="enable-background:new 0 0 96 96;" xml:space="preserve">
<g>
	<path d="M14.5,54.5c2.36-3.54,4.91-6.9,7.49-10.22c2.6-3.31,5.28-6.54,8.01-9.72c2.72-3.19,5.53-6.3,8.35-9.39
		c2.84-3.07,5.72-6.11,8.65-9.1l2.52-2.58l2.48,2.58c2.74,2.84,5.45,5.72,8.1,8.64c2.67,2.91,5.27,5.89,7.84,8.9
		c2.56,3.02,5.07,6.08,7.51,9.22c2.43,3.14,4.82,6.32,7.04,9.67c-3.28-2.32-6.39-4.81-9.46-7.33c-3.06-2.53-6.04-5.14-8.99-7.78
		c-2.93-2.66-5.83-5.35-8.66-8.1c-2.85-2.74-5.64-5.53-8.4-8.36l5.01,0c-2.91,3.01-5.86,5.97-8.85,8.9
		c-3.01,2.91-6.04,5.8-9.15,8.61c-3.1,2.82-6.26,5.59-9.49,8.28C21.26,49.4,17.97,52.04,14.5,54.5z"/>
</g>
<g>
	<path d="M23.5,53.5c0.19,1.83,0.37,3.67,0.51,5.5c0.16,1.83,0.26,3.67,0.4,5.5c0.14,1.83,0.21,3.67,0.31,5.5
		c0.11,1.83,0.19,3.67,0.25,5.5l-1.47-1.47l6.5-0.24l6.5-0.15c4.33-0.11,8.67-0.09,13-0.14c4.33,0.02,8.67,0.04,13,0.11
		c4.33,0.11,8.67,0.18,13,0.37l-1.51,1.51c0.08-1.92,0.14-3.83,0.25-5.75L74.56,64c0.14-1.92,0.24-3.83,0.41-5.75
		c0.15-1.92,0.32-3.83,0.53-5.75c0.21,1.92,0.38,3.83,0.53,5.75c0.17,1.92,0.27,3.83,0.41,5.75l0.32,5.75
		c0.12,1.92,0.18,3.83,0.25,5.75l0.06,1.44l-1.57,0.07c-4.33,0.2-8.67,0.27-13,0.37c-4.33,0.07-8.67,0.09-13,0.11
		c-4.33-0.05-8.67-0.03-13-0.14L30,77.21l-6.5-0.24l-1.52-0.06l0.05-1.41c0.06-1.83,0.15-3.67,0.25-5.5
		c0.11-1.83,0.18-3.67,0.31-5.5c0.13-1.83,0.23-3.67,0.4-5.5C23.13,57.17,23.31,55.33,23.5,53.5z"/>
</g>
<g>
	<path d="M40.07,75.54c-0.36-3.52-0.58-7.03-0.72-10.54c-0.09-1.76-0.11-3.51-0.16-5.27c-0.06-1.76-0.04-3.51-0.07-5.26l-0.02-1.3
		l1.39-0.05c3-0.11,6-0.08,9-0.12c3,0.04,6,0.02,9,0.12l1.42,0.05l-0.05,1.33c-0.06,1.75-0.07,3.5-0.17,5.25
		c-0.09,1.75-0.14,3.5-0.27,5.25c-0.21,3.5-0.5,7-0.93,10.5c-0.44-3.5-0.73-7-0.93-10.5c-0.13-1.75-0.18-3.5-0.27-5.25
		c-0.1-1.75-0.11-3.5-0.17-5.25l1.38,1.38c-3,0.11-6,0.08-9,0.12c-3-0.05-6-0.02-9-0.12l1.37-1.35c-0.09,1.75-0.15,3.51-0.28,5.26
		c-0.13,1.75-0.21,3.5-0.38,5.26C40.94,68.54,40.58,72.05,40.07,75.54z"/>
</g>
</svg>
