<?xml version="1.0" encoding="utf-8"?>
<!-- Generator: Adobe Illustrator 24.0.1, SVG Export Plug-In . SVG Version: 6.00 Build 0)  -->
<svg version="1.1" id="Слой_1" xmlns="http://www.w3.org/2000/svg" xmlns:xlink="http://www.w3.org/1999/xlink" x="0px" y="0px"
	 viewBox="0 0 96 96" style="enable-background:new 0 0 96 96;" xml:space="preserve">
<style type="text/css">
	.st0{fill:#FFFFFF;}
</style>
<image style="display:none;overflow:visible;" width="104" height="100" xlink:href="C:\Users\Professional\Desktop\иконки\3329c0c71f80551b149b33f53c2eea16.png"  transform="matrix(0.75 0 0 0.75 9 11)">
</image>
<g>
	<path class="st0" d="M79.9,20.4c-1.5-1.9-3.4-3.5-5.5-4.7c-2.1-1.2-4.4-2.1-6.7-2.5c-4.7-0.9-9.7,0-13.9,2.2
		c-4.2,2.2-7.7,5.9-9.5,10.4c-1.9,4.4-2.1,9.6-0.6,14.2l-0.2-0.1c1.9-0.4,4-0.4,5.9,0.2c1.9,0.6,3.6,1.6,5.1,3
		c1.5,1.4,2.6,3.1,3.4,4.9c0.4,0.9,0.7,1.9,0.8,2.9c0.1,0.5,0.2,1,0.2,1.5c0,0.5-0.1,1.1-0.3,1.6l-0.3-0.6c4.2,1.1,8.6,0.8,12.6-0.7
		c2-0.8,3.9-1.8,5.5-3.2c1.7-1.3,3.1-3,4.3-4.7c1.2-1.8,2.1-3.8,2.7-5.8c0.6-2.1,0.9-4.2,0.9-6.4c-0.1-2.2-0.4-4.3-1.2-6.4
		C82.3,24.1,81.2,22.2,79.9,20.4z M80,20.4c2.7,3.4,4.5,7.7,4.7,12.1c0.4,4.4-0.8,9-3.2,12.8c-1.2,1.9-2.7,3.6-4.5,5
		c-1.7,1.4-3.7,2.6-5.8,3.4c-4.2,1.6-8.9,1.8-13.2,0.6l-0.5-0.1l0.2-0.5c0.2-0.4,0.3-0.8,0.3-1.2c0-0.4-0.1-0.9-0.1-1.4
		c-0.1-0.9-0.4-1.8-0.7-2.7c-0.7-1.8-1.7-3.4-3.1-4.7c-1.3-1.3-3-2.4-4.8-3c-1.8-0.6-3.8-0.7-5.7-0.3l-0.2,0l0-0.2
		c-1.4-4.7-1.4-9.8,0.4-14.4c1.7-4.6,5.2-8.6,9.6-11c4.4-2.4,9.6-3.1,14.4-2c2.4,0.6,4.7,1.5,6.8,2.8C76.6,16.8,78.4,18.5,80,20.4z"
		/>
</g>
<g>
	<path class="st0" d="M73,25l5.3-1.5l0.1,0l0,0.1c0.4,1.3,0.2,2.8-0.4,4c-0.6,1.2-1.7,2.2-3,2.7c-1.3,0.5-2.8,0.6-4.1,0.1
		c-1.3-0.5-2.5-1.4-3.1-2.7c-0.7-1.2-0.9-2.7-0.6-4.1c0.3-1.4,1.1-2.6,2.3-3.5c1.2-0.8,2.6-1.2,4-1c1.4,0.2,2.7,0.9,3.6,1.9l0.2,0.2
		l-0.2,0.2c-0.7,0.6-1.3,1.1-2.1,1.7C74.5,23.8,73.8,24.4,73,25z M73,25c0.6-0.6,1.3-1.2,1.9-1.9c0.7-0.7,1.3-1.3,2-2l0,0.4
		c-0.9-0.9-2.1-1.5-3.3-1.6c-1.2-0.1-2.5,0.2-3.5,0.9c-1,0.7-1.8,1.8-2.1,3c-0.3,1.2-0.2,2.5,0.4,3.6c0.6,1.1,1.6,2,2.8,2.5
		c1.2,0.4,2.5,0.4,3.7,0c1.2-0.4,2.2-1.4,2.8-2.5c0.6-1.1,0.8-2.5,0.5-3.8l0.1,0.1L73,25z"/>
</g>
<g>
	<path class="st0" d="M41.5,40.5l-5,2.1l0-0.1l3.1,5l0.1,0.1l-0.1,0.1L25.7,61.7l-14,14l0.1-0.3l0,8l-0.6-0.3
		c5.9-5.5,11.7-11,17.6-16.4c5.9-5.5,11.8-10.9,17.7-16.3C40.7,56.1,35,61.7,29.2,67.2c-5.8,5.6-11.6,11-17.4,16.6l-0.6,0.6l0-0.8
		l0-8l0-0.2l0.1-0.1l14-14l14.1-13.9l0,0.2l-2.9-5l0-0.1l0.1,0L41.5,40.5z"/>
</g>
<g>
	<path class="st0" d="M55.5,55.5c-0.2,2.3-0.5,4.7-0.8,7l0,0.4l-0.3-0.2c-2-1.6-4.1-3.3-6.1-4.9l0.4,0l-4,3.1l0.2-0.3l-1,6L43.9,67
		l-0.4,0l-8,0l0.5-0.5l0,7l0,0.2l-0.1,0.1l-3,3l-0.1,0.1l-0.2,0c-2.3,0-4.7-0.1-7-0.1l0.3-0.3l-0.1,5l0,0.1l-0.1,0.1l-3.1,1.9l0,0
		l0,0c-1.7,0-3.3-0.1-5-0.2c1.7-0.1,3.3-0.1,5-0.2l-0.1,0l2.9-2.1l-0.1,0.2l-0.1-5l0-0.3l0.3,0c2.3,0,4.7-0.1,7-0.1l-0.3,0.1l3-3
		L35,73.5l0-7l0-0.5l0.5,0l8,0L43,66.4l1-6l0-0.2l0.1-0.1l4-2.9l0.2-0.2l0.2,0.2c2,1.7,4,3.4,5.9,5.1l-0.3,0.1
		C54.7,60.1,55.1,57.8,55.5,55.5z"/>
</g>
</svg>
