<?xml version="1.0" encoding="utf-8"?>
<!-- Generator: Adobe Illustrator 24.0.1, SVG Export Plug-In . SVG Version: 6.00 Build 0)  -->
<svg version="1.1" id="Слой_1" xmlns="http://www.w3.org/2000/svg" xmlns:xlink="http://www.w3.org/1999/xlink" x="0px" y="0px"
	 viewBox="0 0 96 96" style="enable-background:new 0 0 96 96;" xml:space="preserve">
<style type="text/css">
	.st0{fill:none;stroke:#FFFFFF;stroke-width:2;stroke-miterlimit:10;}
	.st1{fill:#FFFFFF;}
	.st2{fill:#FFFFFF;stroke:#FFFFFF;stroke-miterlimit:10;}
</style>
<circle class="st0" cx="37" cy="36" r="21.5"/>
<g>
	<path class="st1" d="M35,21.1c1.6-0.8,3.5-1,5.3-0.9c1.8,0.1,3.6,0.7,5.2,1.7c1.6,1,3,2.3,3.9,3.9c0.5,0.8,0.8,1.6,1.1,2.5
		c0.3,0.9,0.4,1.8,0.4,2.7c-0.7-0.6-1.1-1.3-1.7-2c-0.6-0.6-1.1-1.2-1.7-1.7c-1.1-1.1-2.3-2-3.6-2.8c-1.3-0.8-2.7-1.4-4.2-2
		C38.3,22,36.7,21.5,35,21.1z"/>
</g>
<path class="st2" d="M48.1,54.1c0,0,7.5-4.2,7.4-6.9l2,3.3c0,0-2,5-7,6L48.1,54.1z"/>
<path class="st2" d="M60,54.2L84.2,80c0,0-2.3,7.9-8.2,5.7L52.8,60C52.8,60,57.8,60.2,60,54.2z"/>
</svg>
