<?xml version="1.0" encoding="utf-8"?>
<!-- Generator: Adobe Illustrator 24.0.1, SVG Export Plug-In . SVG Version: 6.00 Build 0)  -->
<svg version="1.1" id="Слой_1" xmlns="http://www.w3.org/2000/svg" xmlns:xlink="http://www.w3.org/1999/xlink" x="0px" y="0px"
	 viewBox="0 0 96 96" style="enable-background:new 0 0 96 96;" xml:space="preserve">
<style type="text/css">
	.st0{fill:none;stroke:#000000;stroke-width:2;stroke-miterlimit:10;}
	.st1{stroke:#000000;stroke-miterlimit:10;}
</style>
<circle class="st0" cx="37" cy="36" r="21.5"/>
<g>
	<path d="M35,21.08c1.63-0.79,3.48-1,5.3-0.86c1.82,0.15,3.64,0.74,5.24,1.72c1.6,0.97,3,2.31,3.92,3.92
		c0.52,0.76,0.82,1.64,1.12,2.49c0.25,0.87,0.37,1.77,0.42,2.66c-0.67-0.65-1.14-1.34-1.72-1.95c-0.59-0.59-1.07-1.23-1.68-1.74
		c-1.1-1.12-2.33-2.02-3.61-2.81c-1.29-0.79-2.68-1.44-4.17-1.98C38.31,21.98,36.74,21.53,35,21.08z"/>
</g>
<path class="st1" d="M48.14,54.09c0,0,7.46-4.2,7.41-6.89l1.95,3.3c0,0-2,5-7,6L48.14,54.09z"/>
<path class="st1" d="M60.01,54.22l24.18,25.8c0,0-2.26,7.93-8.19,5.74L52.82,59.99C52.82,59.99,57.82,60.15,60.01,54.22z"/>
</svg>
